<svg xmlns="http://www.w3.org/2000/svg" width="3.36in" height="1.62in" viewBox="0 0 241.96 116.85"><defs><style>.cls-1{fill:#2cb34a;}.cls-2{fill:#a1cd3a;}</style></defs><title>logo-color</title><g id="Layer_1" data-name="Layer 1"><path class="cls-1" d="M68.43,40.53a25.59,25.59,0,0,1,.22-3.63h0a6.43,6.43,0,0,1,3,5.4c0,.85-.27,1.9-1.12,2.11-1.15.29-1.88-1-2-2.73,0-.16,0-.95,0-1.16m6.45,15.79a5.51,5.51,0,0,0-5.51,5.51V92.55a5.51,5.51,0,0,0,11,0V61.84a5.51,5.51,0,0,0-5.51-5.51m-51,36.22h0v6.86a6.42,6.42,0,1,1-12.85,0V56.09a5.51,5.51,0,1,0-11,0V99.41a17.45,17.45,0,0,0,32.77,8.34,17.46,17.46,0,0,1-8.9-15.21m119.61-69.9A38.82,38.82,0,0,0,107.94,0,39.38,39.38,0,0,0,71.07,25.88a17.57,17.57,0,0,1,9.24,7.71A28.33,28.33,0,0,1,107.94,11a27.9,27.9,0,0,1,25.55,16.27,5.51,5.51,0,1,0,10-4.65"/><path class="cls-2" d="M125.47,76.59A17.9,17.9,0,0,1,91,69.87V40.26a17.9,17.9,0,0,1,34.49-6.73,5.51,5.51,0,0,1-10.21,4.14A6.88,6.88,0,0,0,102,40.26v29.6a6.88,6.88,0,0,0,13.25,2.58,5.51,5.51,0,0,1,10.21,4.14M65.19,24.86A17.47,17.47,0,0,0,47.74,42.31V92.54a6.42,6.42,0,1,1-12.85,0V49.23a5.51,5.51,0,0,0-11,0V92.54a17.45,17.45,0,1,0,34.9,0V42.31a6.41,6.41,0,0,1,9.88-5.4h0a6.43,6.43,0,0,1,3,5.4c0,.85-.27,1.9-1.12,2.11h0c-1.15.29-1.88-1-2-2.73,0-.07,0-.26,0-.46,0,3.88,2.19,8.38,7.26,8.38a6.87,6.87,0,0,0,6.95-7.3A17.48,17.48,0,0,0,65.19,24.86"/></g><g id="State_Name" data-name="State Name"><path class="cls-1" d="M152.74,60.06a4.92,4.92,0,0,1-5,4.12h-.22a4.89,4.89,0,0,1-5-4.87v-7.8a4.91,4.91,0,0,1,5-4.87h.22a4.86,4.86,0,0,1,4.95,4.17.62.62,0,0,1,0,.25,1.41,1.41,0,0,1-1.47,1.4,1.35,1.35,0,0,1-1.4-1.25,2,2,0,0,0-2.1-1.7h-.22a2,2,0,0,0-2.12,2v7.8a2,2,0,0,0,2.12,2h.22a2,2,0,0,0,2.1-1.7,1.44,1.44,0,0,1,2.87.15Z"/><path class="cls-1" d="M165,59.28a4.85,4.85,0,0,1-5,4.9h-.23a4.91,4.91,0,0,1-5-4.87V51.54a4.93,4.93,0,0,1,5-4.9H160a4.88,4.88,0,0,1,5,4.9Zm-2.9-7.75a2,2,0,0,0-2.1-2h-.23a2,2,0,0,0-2.1,2v7.75a2,2,0,0,0,2.1,2H160a2,2,0,0,0,2.1-2Z"/><path class="cls-1" d="M175.84,64.06h-6.37A1.48,1.48,0,0,1,168,62.61V48.09a1.45,1.45,0,1,1,2.9,0v13.1h4.92a1.44,1.44,0,1,1,0,2.88Z"/><path class="cls-1" d="M189.39,59.28a4.85,4.85,0,0,1-5,4.9h-.22a4.91,4.91,0,0,1-5-4.87V51.54a4.93,4.93,0,0,1,5-4.9h.22a4.88,4.88,0,0,1,5,4.9Zm-2.9-7.75a2,2,0,0,0-2.1-2h-.22a2,2,0,0,0-2.1,2v7.75a2,2,0,0,0,2.1,2h.22a2,2,0,0,0,2.1-2Z"/><path class="cls-1" d="M202.74,52a4.9,4.9,0,0,1-3,4.6l2.63,5.52a1.58,1.58,0,0,1,.17.65,1.47,1.47,0,0,1-1.52,1.4,1.31,1.31,0,0,1-1.25-.82l-3-6.35h-1.5v5.75a1.45,1.45,0,0,1-2.9,0V48.24a1.48,1.48,0,0,1,1.45-1.45h3.92a5,5,0,0,1,5,5Zm-2.9-.23a2,2,0,0,0-2-2.12h-2.55v4.47h2.62A2,2,0,0,0,199.84,52Z"/><path class="cls-1" d="M215.16,64.18a1.31,1.31,0,0,1-1.33-1l-.92-3H208l-.92,3a1.33,1.33,0,0,1-1.35,1,1.4,1.4,0,0,1-1.5-1.37,1,1,0,0,1,.08-.47l4.57-14.47a1.66,1.66,0,0,1,3.2,0l4.55,14.47a1.7,1.7,0,0,1,.07.47A1.4,1.4,0,0,1,215.16,64.18ZM212,57.28,210.44,52l-1.57,5.27Z"/><path class="cls-1" d="M229,59.13a4.89,4.89,0,0,1-5,4.92h-3.77a1.48,1.48,0,0,1-1.45-1.45V48.24a1.48,1.48,0,0,1,1.45-1.45H224a4.88,4.88,0,0,1,5,4.9Zm-2.9-7.45a2,2,0,0,0-2.1-2h-2.33V61.18H224a2,2,0,0,0,2.1-2Z"/><path class="cls-1" d="M242,59.28a4.85,4.85,0,0,1-5,4.9h-.22a4.91,4.91,0,0,1-5-4.87V51.54a4.93,4.93,0,0,1,5-4.9H237a4.88,4.88,0,0,1,5,4.9Zm-2.9-7.75a2,2,0,0,0-2.1-2h-.22a2,2,0,0,0-2.1,2v7.75a2,2,0,0,0,2.1,2H237a2,2,0,0,0,2.1-2Z"/></g></svg>